<?xml version="1.0" encoding="UTF-8"?>
<svg width="1200pt" height="1200pt" version="1.1" viewBox="0 0 1200 1200" xmlns="http://www.w3.org/2000/svg">
 <g>
  <path d="m464.4 560.4c0 96 78 174 174 174s174-78 174-174-78-174-174-174-174 78-174 174z"/>
  <path d="m858 687.6c-7.1992 13.199-15.602 25.199-25.199 37.199-48 58.801-120 96-201.6 96-142.8 0-259.2-116.4-259.2-260.4 0-142.8 116.4-259.2 259.2-259.2 80.398 0 152.4 37.199 200.4 93.602 9.6016 10.801 18 22.801 25.199 36l248.4-69.602c-18-42-40.801-80.398-67.199-115.2-94.797-120-241.2-198-406.8-198-283.2 0-513.6 229.2-513.6 512.4 0 283.2 230.4 513.6 513.6 513.6 212.4 0 396-129.6 474-314.4z"/>
 </g>
</svg>
