<?xml version="1.0" encoding="UTF-8"?>
<svg width="1200pt" height="1200pt" version="1.1" viewBox="0 0 1200 1200" xmlns="http://www.w3.org/2000/svg">
 <g>
  <path d="m460.55 239.22c-24.863 0-48.711 9.875-66.289 27.457-17.582 17.582-27.461 41.43-27.461 66.293s9.8789 48.707 27.457 66.289c17.582 17.582 41.43 27.461 66.293 27.461s48.711-9.8789 66.293-27.461c17.578-17.578 27.457-41.426 27.457-66.289s-9.8789-48.711-27.457-66.293c-17.582-17.582-41.43-27.457-66.293-27.457zm0 150c-14.918 0-29.227-5.9258-39.773-16.477-10.551-10.547-16.477-24.855-16.477-39.773s5.9258-29.227 16.477-39.773c10.547-10.551 24.855-16.477 39.773-16.477s29.227 5.9258 39.773 16.477c10.551 10.547 16.477 24.855 16.477 39.773-0.015625 14.914-5.9492 29.211-16.492 39.754-10.547 10.547-24.844 16.48-39.758 16.496z"/>
  <path d="m544.85 433.43c-12.172 10.203-26.098 18.109-41.098 23.336 30.52 9.5938 57.199 28.641 76.184 54.387 18.984 25.746 29.297 56.863 29.441 88.852v185.46c-0.011719 5.3086-1.9023 10.438-5.332 14.488-3.4336 4.0469-8.1836 6.75-13.418 7.6328v-1.3281h-17.723l-1.0273-127.88c-0.050781-6.6992-3.6758-12.863-9.5-16.168-5.8281-3.3008-12.977-3.2461-18.75 0.14844-5.7773 3.3945-9.3008 9.6133-9.25 16.312l1.0273 127.59h-149.95l-1.082-126.72c-0.039062-4.9453-2.0312-9.6719-5.543-13.156s-8.2578-5.4375-13.203-5.4375h-0.16406c-4.9727 0.042969-9.7227 2.0586-13.211 5.6016-3.4844 3.5469-5.4219 8.332-5.3789 13.305l1.0781 126.41h-19.812v1.3281c-5.2344-0.875-9.9922-3.5781-13.426-7.6289-3.4375-4.0469-5.3281-9.1836-5.3398-14.492v-179.61c-0.19922-33.016 10.051-65.246 29.277-92.086 19.227-26.836 46.445-46.91 77.77-57.344-14.941-5.3398-28.793-13.348-40.875-23.633-31.395 16.68-57.645 41.609-75.914 72.105-18.27 30.5-27.867 65.406-27.758 100.96v179.61c0.007812 15.258 5.832 29.938 16.285 41.051 10.453 11.113 24.754 17.824 39.98 18.762v291.95c-0.96875 15.578 4.25 30.91 14.523 42.664 10.27 11.754 24.77 18.973 40.336 20.094 0.46875 0.011719 0.94531 0.019531 1.4141 0.019531 15.312-0.66406 29.758-7.2852 40.258-18.449 10.5-11.164 16.227-25.988 15.953-41.312v-294.78h37.52v291.77c-0.97266 15.578 4.2461 30.914 14.52 42.664 10.273 11.754 24.77 18.973 40.336 20.094 0.46875 0.011719 0.94531 0.019531 1.4141 0.019531 15.312-0.66406 29.758-7.2852 40.258-18.449 10.5-11.164 16.227-25.988 15.953-41.312v-294.97c15.227-0.94141 29.52-7.6523 39.969-18.762 10.453-11.113 16.273-25.793 16.281-41.047v-185.46c-0.10156-34.449-9.6719-68.211-27.668-97.586-17.992-29.379-43.715-53.246-74.359-68.988zm-141.72 706.3c0.32812 5.5195-1.4688 10.957-5.0234 15.188-3.5547 4.2344-8.5938 6.9492-14.086 7.5781h-0.007813c-5.6016-0.96094-10.621-4.0234-14.035-8.5625-3.418-4.543-4.9688-10.215-4.3398-15.859l0.007813-0.42187v-292.19h37.484zm150 0c0.32812 5.5195-1.4688 10.957-5.0234 15.188-3.5547 4.2344-8.5938 6.9492-14.086 7.5781h-0.007813c-5.6016-0.96094-10.621-4.0234-14.035-8.5625-3.418-4.543-4.9688-10.215-4.3398-15.859l0.007813-0.42187v-292.19h37.484z"/>
  <path d="m571.88 196.88c0-4.9727-1.9766-9.7422-5.4922-13.258-3.5156-3.5156-8.2852-5.4922-13.258-5.4922h-187.5c-6.6992 0-12.887 3.5742-16.238 9.375-3.3477 5.8008-3.3477 12.949 0 18.75 3.3516 5.8008 9.5391 9.375 16.238 9.375h187.5c4.9727 0 9.7422-1.9766 13.258-5.4922 3.5156-3.5156 5.4922-8.2852 5.4922-13.258z"/>
  <path d="m871.88 37.5c6.6992 0 12.887-3.5742 16.238-9.375 3.3477-5.8008 3.3477-12.949 0-18.75-3.3516-5.8008-9.5391-9.375-16.238-9.375h-187.5c-6.6992 0-12.887 3.5742-16.238 9.375-3.3477 5.8008-3.3477 12.949 0 18.75 3.3516 5.8008 9.5391 9.375 16.238 9.375h75v56.25h-56.25c-5.0508 0.17578-9.8359 2.3164-13.336 5.9609-3.5 3.6445-5.4414 8.5117-5.4141 13.566 0.03125 4.8945 2.043 9.5664 5.5742 12.949 3.5352 3.3867 8.2852 5.1992 13.176 5.0234h56.25v37.5h-18.75c-5.0508 0.17578-9.8359 2.3164-13.336 5.9609-3.5 3.6445-5.4414 8.5117-5.4141 13.566 0.03125 4.8945 2.043 9.5664 5.5742 12.949 3.5352 3.3867 8.2852 5.1992 13.176 5.0234h18.75v37.5h-56.25c-5.0508 0.17578-9.8359 2.3164-13.336 5.9609-3.5 3.6445-5.4414 8.5117-5.4141 13.566 0.03125 4.8945 2.043 9.5664 5.5742 12.949 3.5352 3.3867 8.2852 5.1992 13.176 5.0234h56.25v37.5h-18.75c-5.0508 0.17578-9.8359 2.3164-13.336 5.9609-3.5 3.6445-5.4414 8.5117-5.4141 13.566 0.03125 4.8945 2.043 9.5664 5.5742 12.949 3.5352 3.3867 8.2852 5.1992 13.176 5.0234h18.75v37.5h-54.688c-6.6992 0-12.891 3.5742-16.238 9.375-3.3516 5.8008-3.3516 12.949 0 18.75 3.3477 5.8008 9.5391 9.375 16.238 9.375h54.688v37.5h-17.188c-6.6992 0-12.891 3.5742-16.238 9.375-3.3516 5.8008-3.3516 12.949 0 18.75 3.3477 5.8008 9.5391 9.375 16.238 9.375h17.188v37.5h-54.688c-6.6992 0-12.891 3.5742-16.238 9.375-3.3516 5.8008-3.3516 12.949 0 18.75 3.3477 5.8008 9.5391 9.375 16.238 9.375h54.688v37.5h-17.188c-6.6992 0-12.891 3.5742-16.238 9.375-3.3516 5.8008-3.3516 12.949 0 18.75 3.3477 5.8008 9.5391 9.375 16.238 9.375h17.188v37.5h-55.078c-6.6992 0-12.887 3.5742-16.238 9.375-3.3477 5.8008-3.3477 12.949 0 18.75 3.3516 5.8008 9.5391 9.375 16.238 9.375h55.078v37.5h-17.578c-6.6992 0-12.887 3.5742-16.238 9.375-3.3477 5.8008-3.3477 12.949 0 18.75 3.3516 5.8008 9.5391 9.375 16.238 9.375h17.578v37.5h-55.859c-6.6992 0-12.891 3.5742-16.238 9.375-3.3516 5.8008-3.3516 12.949 0 18.75 3.3477 5.8008 9.5391 9.375 16.238 9.375h55.859v37.5h-18.359c-6.6992 0-12.891 3.5742-16.238 9.375-3.3516 5.8008-3.3516 12.949 0 18.75 3.3477 5.8008 9.5391 9.375 16.238 9.375h18.359v37.5h-55.273c-6.6992 0-12.891 3.5742-16.238 9.375-3.3516 5.8008-3.3516 12.949 0 18.75 3.3477 5.8008 9.5391 9.375 16.238 9.375h55.273v37.5h-19.531c-6.6992 0-12.891 3.5742-16.238 9.375-3.3516 5.8008-3.3516 12.949 0 18.75 3.3477 5.8008 9.5391 9.375 16.238 9.375h19.531v56.25h-75c-6.6992 0-12.887 3.5742-16.238 9.375-3.3477 5.8008-3.3477 12.949 0 18.75 3.3516 5.8008 9.5391 9.375 16.238 9.375h187.5c6.6992 0 12.887-3.5742 16.238-9.375 3.3477-5.8008 3.3477-12.949 0-18.75-3.3516-5.8008-9.5391-9.375-16.238-9.375h-75v-1125z"/>
 </g>
</svg>
