<?xml version="1.0" encoding="UTF-8"?>
<svg width="1200pt" height="1200pt" version="1.1" viewBox="0 0 1200 1200" xmlns="http://www.w3.org/2000/svg">
 <g>
  <path d="m1031.2 1200h-862.5c-44.754 0-87.676-17.777-119.32-49.426-31.648-31.648-49.426-74.57-49.426-119.32v-862.5c0-44.754 17.777-87.676 49.426-119.32 31.648-31.648 74.57-49.426 119.32-49.426h862.5c44.754 0 87.676 17.777 119.32 49.426 31.648 31.648 49.426 74.57 49.426 119.32v862.5c0 44.754-17.777 87.676-49.426 119.32-31.648 31.648-74.57 49.426-119.32 49.426zm-862.5-1162.5c-34.809 0-68.195 13.828-92.809 38.441-24.613 24.613-38.441 58-38.441 92.809v862.5c0 34.809 13.828 68.195 38.441 92.809 24.613 24.613 58 38.441 92.809 38.441h862.5c34.809 0 68.195-13.828 92.809-38.441 24.613-24.613 38.441-58 38.441-92.809v-862.5c0-34.809-13.828-68.195-38.441-92.809-24.613-24.613-58-38.441-92.809-38.441z"/>
  <path d="m977.16 270.38c-64.164-69.785-146.43-120.4-237.64-146.21-91.219-25.812-187.8-25.812-279.02 0-91.215 25.816-173.48 76.43-237.64 146.21-3.0742 3.3359-4.832 7.6719-4.9531 12.203-0.12109 4.5352 1.4062 8.957 4.2969 12.453l150 181.22c3.0391 4.1914 7.6719 6.9375 12.805 7.5938 5.1367 0.65625 10.312-0.83984 14.305-4.1328 3.9922-3.293 6.4453-8.0898 6.7812-13.254 0.33594-5.168-1.4805-10.238-5.0156-14.02l-139.03-168.75c84.75-85.66 198.82-136.01 319.22-140.91v44.719c0 6.6992 3.5742 12.887 9.375 16.238 5.8008 3.3477 12.949 3.3477 18.75 0 5.8008-3.3516 9.375-9.5391 9.375-16.238v-44.719c120.54 4.8984 234.73 55.359 319.5 141.19l-139.97 169.59c-3.3281 3.8086-4.9727 8.8047-4.5664 13.844 0.40625 5.043 2.8359 9.707 6.7305 12.934 3.8984 3.2227 8.9336 4.7383 13.961 4.1992 5.0312-0.53906 9.6289-3.0898 12.75-7.0703l150.66-182.44c2.8906-3.4961 4.418-7.918 4.2969-12.453-0.12109-4.5312-1.8789-8.8672-4.9531-12.203z"/>
  <path d="m680.72 447.38-63.75-136.59c-2.0312-4.3164-5.6289-7.6992-10.062-9.457-4.4375-1.7539-9.375-1.7539-13.812 0-4.4336 1.7578-8.0312 5.1406-10.062 9.457l-63.75 136.59c-37.121 13.016-70.543 34.824-97.406 63.562-4.5898 4.8906-6.2188 11.855-4.2773 18.277 1.9375 6.418 7.1562 11.312 13.688 12.844 6.5273 1.5273 13.375-0.54297 17.965-5.4336 25.883-27.578 58.824-47.539 95.25-57.711 36.43-10.176 74.945-10.176 111.38 0 36.426 10.172 69.367 30.133 95.25 57.711 4.75 3.9922 11.164 5.375 17.137 3.6953 5.9727-1.6797 10.727-6.2031 12.699-12.082 1.9766-5.8828 0.91406-12.359-2.8359-17.301-26.863-28.738-60.285-50.547-97.406-63.562zm-114.84-11.25 34.125-73.031 34.125 73.031c-22.645-3.125-45.605-3.125-68.25 0z"/>
 </g>
</svg>
